<?xml version="1.0" encoding="iso-8859-1"?>
<!-- Generator: Adobe Illustrator 16.0.0, SVG Export Plug-In . SVG Version: 6.00 Build 0)  -->
<!DOCTYPE svg PUBLIC "-//W3C//DTD SVG 1.1//EN" "http://www.w3.org/Graphics/SVG/1.1/DTD/svg11.dtd">
<svg version="1.1" id="Capa_1" xmlns="http://www.w3.org/2000/svg" xmlns:xlink="http://www.w3.org/1999/xlink" x="0px" y="0px"
	 width="849.971px" height="849.971px" viewBox="0 0 849.971 849.971" style="enable-background:new 0 0 849.971 849.971;"
	 xml:space="preserve">
<g>
	<g>
		<path d="M808.483,638.435c1.8,0.4,3.5,0.6,5.3,0.6c13.4,0,24.9-10.898,24.9-25V164.135c0-10.9-7-20.5-17.4-23.8
			c-22.399-7.2-64.899-19-117.399-25.5v128.9c0,12.2-13.801,19.3-23.7,12.2l-33.7-24c-5.2-3.7-12.2-3.7-17.4,0l-33.699,24
			c-9.9,7.1-23.7,0-23.7-12.2v-130.3c-58.7,6.1-106.3,19.4-130.2,27.1v501.101c40.8-10.701,110.8-17.801,190.3-17.801
			C703.083,623.835,766.783,629.435,808.483,638.435z"/>
		<path d="M36.183,638.935c1.7,0,3.5-0.199,5.3-0.6c41.8-8.9,105.4-14.6,176.7-14.6c79.5,0,149.5,7.1,190.3,17.799v-501
			c-31.6-10.1-104.9-30.2-190.3-30.2c-84.7,0-157.5,19.8-189.5,30c-10.4,3.3-17.4,12.9-17.4,23.8v449.8
			C11.283,628.034,22.783,638.935,36.183,638.935z"/>
		<path d="M2.383,711.335c2.7,13.5,15.8,22.4,29.4,19.699l4.9-1c43.1-8.5,106.6-13.398,174.1-13.398c100.5,0,174.9,10.6,204,21.199
			c3.3,1.199,6.8,1.801,10.2,1.801c3.401,0,6.901-0.602,10.201-1.801c29.1-10.5,103.5-21.199,204-21.199
			c67.5,0,131,4.898,174.1,13.398l4.9,1c13.5,2.701,26.7-6.1,29.399-19.699l1.9-9.801c2.7-13.5-6.1-26.699-19.7-29.398l-4.899-1
			c-0.2,0-0.301-0.102-0.5-0.102c-46.801-9.199-114.2-14.5-185.2-14.5c-89,0-169.3,8.102-214.201,21.4
			c-44.9-13.299-125.2-21.4-214.2-21.4c-71,0-138.5,5.301-185.2,14.5c-0.2,0-0.3,0.102-0.5,0.102l-4.9,1
			c-13.5,2.699-22.4,15.799-19.7,29.398L2.383,711.335z"/>
	</g>
</g>
<g>
</g>
<g>
</g>
<g>
</g>
<g>
</g>
<g>
</g>
<g>
</g>
<g>
</g>
<g>
</g>
<g>
</g>
<g>
</g>
<g>
</g>
<g>
</g>
<g>
</g>
<g>
</g>
<g>
</g>
</svg>
